<?xml version="1.0" encoding="utf-8"?>
<!-- Generator: Adobe Illustrator 25.2.3, SVG Export Plug-In . SVG Version: 6.00 Build 0)  -->
<svg version="1.1" xmlns="http://www.w3.org/2000/svg" xmlns:xlink="http://www.w3.org/1999/xlink" x="0px" y="0px"
	 viewBox="0 0 228.06 67.28" style="enable-background:new 0 0 228.06 67.28;" xml:space="preserve">
<style type="text/css">
	.st0{fill:#7A7C7C;}
	.st1{fill:#FFFFFF;}
	.st2{fill:#FFFDFD;}
	.st3{fill:#3C3B42;}
	.st4{fill-rule:evenodd;clip-rule:evenodd;fill:#3C3B42;}
	.st5{fill-rule:evenodd;clip-rule:evenodd;fill:#F5F2EB;}
	.st6{fill-rule:evenodd;clip-rule:evenodd;}
	.st7{fill-rule:evenodd;clip-rule:evenodd;fill:#FFFFFF;}
	.st8{fill-rule:evenodd;clip-rule:evenodd;fill:#B3BBCA;}
	.st9{fill-rule:evenodd;clip-rule:evenodd;fill:#585F35;}
	.st10{fill-rule:evenodd;clip-rule:evenodd;fill:#A18A5A;}
	.st11{fill-rule:evenodd;clip-rule:evenodd;fill:#A78953;}
	.st12{fill:none;}
	.st13{fill:none;stroke:#A78953;stroke-width:2;}
</style>
<g id="Réteg_1">
	<g id="Group_326" transform="translate(290 -46)">
		<g id="Group_215" transform="translate(-290 46)">
			<path id="Path_1744" class="st3" d="M113.99,67.28c-2.11,0-4.04-1.19-4.98-3.07l0,0l-6.79-12.4h-2.14
				c-13.56,0-27.58,0-41.53-0.01c-0.54,0.03-1.07,0.04-1.59,0.04c-0.54,0-1.07-0.02-1.56-0.05c-0.51-0.03-1.02-0.09-1.51-0.15
				s-0.97-0.15-1.44-0.26c-0.06-0.01-0.11-0.02-0.17-0.04s-0.12-0.03-0.17-0.05c-1.36-0.47-2.67-1.06-3.91-1.79
				c-1.18-0.69-2.29-1.49-3.32-2.39c-0.99-0.88-1.91-1.84-2.74-2.87c-0.82-1.03-1.57-2.13-2.23-3.27l-0.17-0.29
				c-0.04-0.07-0.06-0.15-0.06-0.23c-0.04-0.11-0.09-0.22-0.13-0.32l-0.01-0.03c-0.31-0.61-0.47-1.28-0.48-1.96c0-0.04,0-0.07,0-0.1
				H38.5c-1.32,0.11-2.64,0.06-3.95-0.16c-1.31-0.23-2.59-0.62-3.8-1.16c-1.27-0.58-2.47-1.29-3.59-2.12
				c-1.26-0.94-2.44-1.97-3.54-3.09c-0.03-0.03-0.05-0.06-0.07-0.08l-0.05-0.06c-0.43-0.46-0.83-0.93-1.2-1.37
				c-0.38-0.46-0.72-0.92-1.01-1.35c-0.32-0.47-0.61-0.95-0.87-1.45c-0.2-0.39-0.38-0.78-0.54-1.19c-0.05-0.06-0.09-0.13-0.1-0.2
				l-0.07-0.34c-0.09-0.36-0.14-0.73-0.15-1.1c0-0.03,0-0.07,0-0.1h-0.7c-0.8,0.03-1.6,0.02-2.4-0.05
				c-0.78-0.06-1.56-0.19-2.32-0.36c-0.75-0.18-1.49-0.42-2.2-0.71c-0.69-0.29-1.35-0.64-1.98-1.05c-1.02-0.58-2.01-1.22-2.94-1.93
				c-1.66-1.25-3.12-2.74-4.34-4.42c-0.58-0.8-1.12-1.63-1.61-2.48c-0.01-0.02-0.03-0.05-0.05-0.08s-0.04-0.07-0.06-0.1
				c-0.8-1.54-1.56-3.44-0.32-4.5c0.81-0.7,2.18-0.7,3.77-0.7h65.71c0.05,0,0.1,0.01,0.14,0.02c1.4,0.06,2.8,0.24,4.18,0.54
				c1.38,0.3,2.73,0.75,4.01,1.35c0.35,0.17,0.71,0.35,1.04,0.54c0.27,0.15,0.53,0.31,0.79,0.48h13.25l-0.69-1.2
				c-0.78-1.36-0.32-3.1,1.04-3.88c0.11-0.06,0.23-0.12,0.35-0.17c0.12-0.05,0.23-0.09,0.35-0.12c0.08-0.02,0.15-0.04,0.22-0.05
				c0.05-0.01,0.11-0.02,0.18-0.02l0,0c0.05-0.01,0.1-0.01,0.16-0.02s0.11-0.01,0.16-0.01h6.95l-0.54-0.94
				c-0.07-0.11-0.13-0.22-0.19-0.33c-0.06-0.12-0.11-0.25-0.15-0.38c-0.04-0.14-0.08-0.28-0.1-0.43c-0.02-0.14-0.04-0.29-0.04-0.43
				c0-1.57,1.28-2.85,2.85-2.85h19.93c0.06,0,0.12,0,0.18,0.01s0.11,0.01,0.17,0.02s0.12,0.02,0.18,0.03s0.14,0.03,0.21,0.05
				c0.12,0.03,0.23,0.07,0.35,0.12c0.11,0.05,0.23,0.1,0.33,0.17c0.66,0.38,1.14,1,1.33,1.73c0.1,0.36,0.12,0.73,0.07,1.1
				c-0.05,0.37-0.17,0.73-0.36,1.05l-0.63,1.1h7.18c1.57,0,2.85,1.28,2.85,2.85c0,0.14-0.01,0.28-0.04,0.42
				c-0.02,0.14-0.06,0.28-0.1,0.42c-0.02,0.05-0.03,0.11-0.05,0.16c-0.01,0.06-0.02,0.12-0.05,0.17l-0.84,1.44h12.85
				c0.26-0.17,0.52-0.33,0.79-0.48c0.34-0.19,0.69-0.38,1.04-0.54c1.28-0.6,2.63-1.06,4.01-1.35c1.38-0.29,2.77-0.47,4.18-0.54
				c0.05-0.02,0.09-0.02,0.14-0.02h65.7c2.02,0,3.61,0,4.25,1.05c0.51,0.83,0.26,2.11-0.8,4.14c-0.01,0.03-0.03,0.06-0.06,0.1
				s-0.03,0.06-0.05,0.08c-0.49,0.86-1.03,1.68-1.61,2.48c-1.22,1.68-2.69,3.17-4.34,4.42c-0.94,0.71-1.93,1.36-2.96,1.93
				c-0.63,0.41-1.29,0.76-1.98,1.05c-0.71,0.3-1.45,0.54-2.2,0.71c-0.76,0.18-1.54,0.3-2.32,0.36c-0.8,0.06-1.6,0.08-2.4,0.05h-0.7
				c0,0.03,0,0.07,0,0.1c-0.01,0.37-0.06,0.74-0.15,1.1l-0.07,0.34c-0.01,0.07-0.05,0.14-0.1,0.2c-0.16,0.41-0.33,0.8-0.54,1.19
				c-0.26,0.5-0.55,0.99-0.87,1.45c-0.29,0.43-0.63,0.89-1.01,1.35c-0.36,0.45-0.76,0.91-1.2,1.37c-0.02,0.02-0.04,0.04-0.05,0.06
				s-0.04,0.05-0.07,0.08c-1.1,1.12-2.28,2.16-3.54,3.09c-1.12,0.83-2.32,1.54-3.59,2.12c-1.21,0.55-2.49,0.94-3.8,1.16
				c-1.3,0.22-2.63,0.27-3.95,0.16h-0.57c0,0.03,0,0.07,0,0.1c-0.01,0.68-0.17,1.35-0.48,1.96l-0.01,0.03
				c-0.04,0.1-0.08,0.21-0.13,0.32c0,0.08-0.02,0.16-0.06,0.23l-0.17,0.29c-0.66,1.14-1.4,2.24-2.23,3.27
				c-0.83,1.03-1.74,1.99-2.74,2.87c-1.02,0.9-2.13,1.7-3.3,2.39c-1.24,0.72-2.55,1.32-3.91,1.79c-0.06,0.02-0.11,0.04-0.17,0.05
				c-0.05,0.01-0.11,0.02-0.16,0.04c-0.47,0.1-0.96,0.19-1.44,0.26s-1,0.12-1.51,0.15c-0.5,0.03-1.02,0.05-1.56,0.05
				c-0.52,0-1.05-0.01-1.59-0.04c-13.94,0.01-27.95,0.01-41.5,0.01h-2.19l-6.77,12.38C118.04,66.08,116.1,67.27,113.99,67.28
				L113.99,67.28z M100.14,50.97h2.32c0.15,0,0.29,0.08,0.37,0.22l6.92,12.62l0.01,0.01c1.17,2.34,4.02,3.29,6.36,2.12
				c0.92-0.46,1.67-1.21,2.13-2.13l0.01-0.02l6.89-12.6c0.07-0.13,0.21-0.22,0.37-0.22h2.4c13.56,0,27.59,0,41.54-0.01h0.02
				c0.52,0.03,1.05,0.04,1.55,0.04c0.52,0,1.03-0.02,1.51-0.05c0.5-0.03,0.98-0.08,1.45-0.15s0.94-0.15,1.39-0.25l0.03-0.01
				c0.03-0.01,0.07-0.01,0.1-0.02s0.07-0.02,0.11-0.03c1.31-0.45,2.57-1.02,3.76-1.72c1.13-0.66,2.2-1.43,3.18-2.29
				c0.96-0.84,1.84-1.77,2.64-2.76c0.8-1,1.52-2.06,2.16-3.17l0.09-0.15c0-0.03,0.01-0.07,0.02-0.1c0.07-0.19,0.14-0.36,0.2-0.51
				l0,0l0,0c0.26-0.5,0.4-1.06,0.42-1.63c0-0.16-0.02-0.31-0.05-0.47c-0.05-0.23,0.1-0.45,0.33-0.49c0.03-0.01,0.05-0.01,0.08-0.01
				h1.1c1.25,0.11,2.52,0.06,3.76-0.15c1.24-0.21,2.45-0.58,3.6-1.1c1.21-0.55,2.37-1.23,3.44-2.03c1.22-0.91,2.37-1.92,3.44-3.01
				l0.05-0.05l0.03-0.04l0.02-0.02c0.42-0.45,0.81-0.9,1.17-1.34s0.69-0.88,0.96-1.29c0.3-0.44,0.57-0.9,0.82-1.37
				c0.21-0.4,0.39-0.82,0.55-1.24c0.01-0.04,0.03-0.07,0.05-0.1l0.04-0.18c0.08-0.3,0.12-0.61,0.13-0.92c0-0.14-0.02-0.28-0.05-0.42
				c-0.06-0.22,0.08-0.45,0.3-0.51c0.03-0.01,0.07-0.01,0.1-0.01h1.2c0.77,0.03,1.54,0.02,2.3-0.04c0.74-0.06,1.48-0.18,2.2-0.35
				c0.7-0.17,1.39-0.39,2.06-0.67c0.65-0.27,1.27-0.6,1.86-0.99l0.02-0.01c1-0.56,1.96-1.19,2.88-1.88c1.59-1.2,3-2.63,4.17-4.25
				c0.57-0.78,1.09-1.58,1.57-2.41l0.01-0.02l0.04-0.06c0.01-0.02,0.03-0.04,0.04-0.06c0.87-1.68,1.15-2.79,0.82-3.32
				c-0.4-0.65-1.85-0.65-3.53-0.65h-65.58c-0.03,0.01-0.07,0.02-0.1,0.02c-1.4,0.06-2.79,0.23-4.16,0.52
				c-1.32,0.28-2.61,0.72-3.83,1.29c-0.34,0.16-0.67,0.33-0.99,0.51c-0.29,0.16-0.57,0.34-0.85,0.52c-0.07,0.05-0.15,0.07-0.23,0.07
				h-13.7c-0.23,0-0.42-0.19-0.42-0.42c0-0.07,0.02-0.15,0.06-0.21l1.15-1.97c0.01-0.02,0.01-0.04,0.02-0.07
				c0.03-0.07,0.05-0.13,0.07-0.2c0.03-0.1,0.05-0.2,0.07-0.3c0.02-0.1,0.02-0.19,0.02-0.29c0-1.11-0.9-2.01-2.02-2.02h-7.91
				c-0.23,0-0.42-0.19-0.42-0.42c0-0.07,0.02-0.15,0.06-0.21l0.99-1.72c0.13-0.23,0.22-0.48,0.25-0.74
				c0.04-0.26,0.02-0.52-0.05-0.77c-0.14-0.52-0.48-0.95-0.94-1.22c-0.08-0.05-0.16-0.09-0.24-0.12c-0.08-0.03-0.16-0.06-0.24-0.08
				c-0.04-0.01-0.09-0.02-0.14-0.03s-0.09-0.01-0.13-0.02h-0.02c-0.04-0.01-0.07-0.01-0.11-0.01s-0.08,0-0.11,0h-19.94
				c-1.11,0-2.01,0.9-2.01,2.01c0,0.1,0.01,0.2,0.03,0.3c0.02,0.11,0.04,0.21,0.07,0.31c0.03,0.09,0.06,0.18,0.11,0.27
				c0.04,0.08,0.09,0.16,0.14,0.24L102.45,4l0.91,1.58c0.12,0.2,0.05,0.46-0.15,0.57c-0.06,0.04-0.14,0.06-0.21,0.06h-7.67
				c-0.03,0-0.06,0-0.1,0l-0.08,0.01l-0.04,0.01c-0.06,0.01-0.1,0.01-0.14,0.02s-0.1,0.02-0.15,0.03c-0.09,0.02-0.17,0.05-0.26,0.09
				c-0.08,0.03-0.16,0.07-0.23,0.11c-0.97,0.55-1.3,1.78-0.75,2.75c0,0,0,0,0,0l1.05,1.82c0.12,0.2,0.05,0.46-0.15,0.57
				c-0.06,0.04-0.14,0.06-0.21,0.06h-14.1c-0.08,0-0.16-0.02-0.23-0.07c-0.27-0.18-0.56-0.36-0.85-0.52
				c-0.32-0.18-0.65-0.35-0.99-0.51c-1.22-0.57-2.51-1.01-3.83-1.29c-1.37-0.29-2.76-0.47-4.16-0.52c-0.03,0-0.07-0.01-0.1-0.02
				H4.42c-1.42,0-2.65,0-3.23,0.49c-0.38,0.33-0.75,1.05,0.52,3.48c0.01,0.02,0.02,0.04,0.04,0.06s0.03,0.04,0.04,0.06l0.01,0.02
				c0.48,0.83,1,1.64,1.57,2.41c1.17,1.61,2.58,3.04,4.17,4.25c0.91,0.69,1.87,1.32,2.87,1.88l0.02,0.01
				c0.59,0.38,1.21,0.71,1.86,0.99c0.67,0.28,1.36,0.51,2.06,0.67c0.72,0.17,1.46,0.28,2.2,0.35c0.77,0.06,1.53,0.08,2.3,0.04h1.2
				c0.23,0,0.42,0.19,0.41,0.42c0,0.03,0,0.07-0.01,0.1c-0.03,0.14-0.05,0.28-0.05,0.42c0.01,0.31,0.05,0.62,0.13,0.92l0.04,0.18
				c0.02,0.03,0.04,0.06,0.05,0.1c0.16,0.42,0.34,0.84,0.55,1.24c0.25,0.47,0.52,0.93,0.82,1.37c0.28,0.41,0.6,0.85,0.96,1.29
				s0.74,0.88,1.17,1.34l0.02,0.02l0.03,0.04l0.04,0.05c1.07,1.09,2.22,2.1,3.44,3.01c1.07,0.8,2.22,1.48,3.44,2.03
				c1.15,0.52,2.36,0.89,3.6,1.1c1.24,0.21,2.5,0.26,3.76,0.15h1.1c0.23,0,0.42,0.19,0.42,0.42c0,0.03,0,0.06-0.01,0.08
				c-0.03,0.15-0.05,0.31-0.05,0.47c0.02,0.57,0.16,1.12,0.42,1.63l0,0l0,0c0.06,0.15,0.13,0.32,0.2,0.51
				c0.01,0.03,0.02,0.07,0.02,0.1l0.09,0.15c0.64,1.11,1.36,2.17,2.16,3.17c0.8,1,1.68,1.92,2.64,2.76
				c0.99,0.86,2.05,1.63,3.18,2.29c1.2,0.69,2.47,1.27,3.78,1.72c0.03,0.01,0.07,0.02,0.1,0.03s0.06,0.01,0.1,0.02l0.03,0.01
				c0.45,0.1,0.92,0.18,1.39,0.25s0.96,0.12,1.45,0.15c0.48,0.03,0.99,0.05,1.51,0.05c0.51,0,1.03-0.01,1.55-0.04h0.02
				c13.96,0.01,28,0.01,41.57,0.01L100.14,50.97z M171.01,50.11c-0.48,0-0.97-0.01-1.48-0.04l-43.49,0.03
				c-0.23,0-0.42-0.19-0.42-0.42c0-0.07,0.02-0.15,0.06-0.21l6.93-12.05c0.07-0.13,0.21-0.21,0.36-0.21l51.99-0.01
				c1.18-0.04,1.78,0.11,2.07,0.52c0.33,0.48,0.09,1.07-0.19,1.75c-0.08,0.19-0.15,0.38-0.23,0.58c-0.01,0.02-0.02,0.04-0.03,0.07
				c-1.21,2.14-2.77,4.07-4.6,5.71c-1.94,1.7-4.2,3-6.65,3.83l-0.04,0.01C173.87,49.97,172.44,50.12,171.01,50.11L171.01,50.11z
				 M186.2,39.91L186.2,39.91z M56.97,50.11c-1.43,0.01-2.86-0.14-4.26-0.45l-0.04-0.01c-2.44-0.83-4.7-2.13-6.65-3.83
				c-1.83-1.64-3.39-3.57-4.6-5.71c-0.01-0.02-0.02-0.04-0.03-0.07c-0.07-0.2-0.15-0.4-0.23-0.58c-0.28-0.68-0.52-1.28-0.19-1.75
				c0.29-0.41,0.89-0.57,2.07-0.52l51.99,0.01c0.15,0,0.29,0.08,0.36,0.21l6.93,12.05c0.12,0.2,0.05,0.46-0.15,0.57
				c-0.06,0.04-0.14,0.06-0.21,0.06l0,0l-43.49-0.03C57.95,50.09,57.45,50.11,56.97,50.11z M190.85,36.36
				c-0.41,0-0.82-0.02-1.24-0.05l-55.7-0.03c-0.23,0-0.42-0.19-0.42-0.42c0-0.07,0.02-0.15,0.06-0.21l6.99-12.02
				c0.07-0.13,0.21-0.21,0.36-0.21h64.08c0.81,0,1.24,0.12,1.49,0.43c0.22,0.38,0.26,0.85,0.09,1.26c0,0.02-0.01,0.03-0.01,0.05
				c-0.77,1.92-1.94,3.66-3.41,5.12l-0.01,0.01C199,34.45,195.16,36.36,190.85,36.36L190.85,36.36z M206.15,25.02L206.15,25.02z
				 M37.13,36.36c-4.32,0-8.15-1.91-12.28-6.08l-0.01-0.01c-1.48-1.45-2.64-3.19-3.41-5.12c-0.01-0.02-0.01-0.03-0.01-0.05
				c-0.16-0.41-0.13-0.88,0.09-1.26c0.24-0.3,0.68-0.43,1.49-0.43h64.08c0.15,0,0.29,0.08,0.36,0.21l6.99,12.02
				c0.12,0.2,0.05,0.46-0.15,0.57c-0.06,0.04-0.14,0.06-0.21,0.06l-55.7,0.03C37.95,36.35,37.54,36.36,37.13,36.36z M142.55,21.71
				h66.5c2.66,0.23,5.33-0.4,7.6-1.8l0.03-0.02c3.4-1.82,6.2-4.6,8.05-7.99c0.48-0.93,0.38-1.19,0.35-1.23
				c-0.12-0.2-0.9-0.2-1.53-0.2h-65.35c-5.91,0.21-10.19,2.27-12.72,6.11L142.55,21.71z M225.1,12.11L225.1,12.11z M3.25,11.91
				C5.1,15.3,7.9,18.07,11.3,19.9l0.03,0.02c2.27,1.4,4.94,2.03,7.6,1.8h66.5l-2.94-5.12c-2.53-3.85-6.81-5.9-12.72-6.11H4.42
				c-0.62,0-1.4,0-1.53,0.2C2.87,10.71,2.77,10.97,3.25,11.91L3.25,11.91z"/>
		</g>
		<path id="Path_1745" class="st4" d="M-175.92,66.15l4.98-8.65l4.98-8.65h-19.93l4.98,8.65L-175.92,66.15z M-170.34,57.85
			l-4.98,8.64c-0.19,0.33-0.61,0.46-0.94,0.27c-0.11-0.06-0.2-0.15-0.27-0.26l-4.98-8.65l-4.95-8.59c-0.22-0.32-0.14-0.75,0.17-0.97
			c0.12-0.08,0.25-0.12,0.39-0.13h19.93l0,0c0.38,0,0.69,0.31,0.69,0.69c0,0.12-0.03,0.24-0.09,0.35L-170.34,57.85z"/>
		<path id="Path_1746" class="st4" d="M-176.52,87.21l-18.75-32.65c-0.19-0.33-0.07-0.76,0.26-0.95c0.1-0.06,0.22-0.09,0.34-0.09
			h9.49c0.27,0,0.51,0.15,0.62,0.39l8.68,14.92l8.66-14.96c0.12-0.21,0.35-0.35,0.6-0.35l0,0h9.68c0.39,0,0.7,0.32,0.69,0.71
			c0,0.13-0.04,0.27-0.12,0.38l-18.96,32.61c-0.19,0.33-0.62,0.44-0.95,0.25C-176.38,87.41-176.46,87.32-176.52,87.21L-176.52,87.21
			z M-175.92,86.87l18.98-32.65h-9.68l-9.25,15.99l-9.3-15.99h-9.49L-175.92,86.87z"/>
		<path id="Path_1747" class="st4" d="M-176.61,108.02l-27.48-47.99c-0.19-0.33-0.07-0.76,0.26-0.95c0.1-0.06,0.22-0.09,0.34-0.09
			h9.52c0.27,0,0.51,0.16,0.63,0.4l17.33,30.41l17.55-30.26c0.12-0.21,0.35-0.35,0.6-0.35h9.42c0.39,0,0.7,0.32,0.69,0.71
			c0,0.14-0.05,0.28-0.13,0.39l-27.54,47.73c-0.19,0.33-0.62,0.44-0.95,0.25C-176.46,108.21-176.55,108.12-176.61,108.02
			L-176.61,108.02z M-189.82,82.16l13.81,24.12l12.22-21.18l15.35-25.22h-9.42l-18.15,31.3l-17.96-31.5h-9.52L-189.82,82.16z"/>
	</g>
</g>
<g id="Elkülönítés_mód">
</g>
</svg>
